<svg width="655" height="189" viewBox="0 0 655 189" fill="none" xmlns="http://www.w3.org/2000/svg">
<path d="M110.202 131.501L123.175 66.6391L124.91 58.3901L139.841 131.497H110.202V131.501ZM113.764 3.81738L111.669 15.1728L75.8671 184.412H99.5209L105.88 153.128H144.255L150.641 184.412H174.55L136.653 3.81738H113.76H113.764Z" fill="#F4FF57"/>
<path d="M230.831 162.024H224.982V101.949L229.05 101.994H230.325C245.844 101.994 259.322 112.931 259.322 132.772C259.322 152.613 246.86 162.024 230.835 162.024M229.82 26.2C241.016 26.7147 256.27 31.0328 256.27 53.1652C256.27 75.2977 240.756 81.3967 229.564 81.9023H224.987V26.2273L229.82 26.1955H229.815L229.82 26.2ZM262.378 90.8072C273.06 82.663 280.183 69.9456 280.183 53.1607C280.183 25.6899 263.394 3.8125 229.82 3.8125H200.823V184.402H230.835C256.78 184.402 283.49 170.664 283.49 132.767C283.49 114.452 275.601 99.6985 262.378 90.8027" fill="#F4FF57"/>
<path d="M339.388 3.81738H315.229V184.407H376.529V161.773H339.388V3.81738Z" fill="#F4FF57"/>
<path d="M478.469 164.825H474.652C433.698 164.06 407.248 133.797 407.248 94.1141C407.248 54.4315 433.703 24.1685 474.652 23.1482H478.469C519.418 24.1639 545.868 54.4315 545.868 94.1141C545.868 133.797 519.413 164.06 478.469 164.825ZM478.469 0H474.652C421.236 1.01575 382.574 40.4387 382.574 94.1141C382.574 147.789 421.241 187.208 474.652 188.228H478.469C531.885 187.212 570.292 147.785 570.292 94.1141C570.292 40.4433 531.885 1.02031 478.469 0Z" fill="#F4FF57"/>
<path d="M0 184.174V161.399C15.4094 161.399 27.9491 148.864 27.9491 133.45V54.7775C27.9491 26.8102 50.7056 4.05371 78.6729 4.05371V26.8284C63.2635 26.8284 50.7238 39.3636 50.7238 54.7775V133.446C50.7238 161.413 27.9719 184.17 0 184.17V184.174Z" fill="#F4FF57"/>
<path d="M576.327 184.174V161.399C591.736 161.399 604.276 148.864 604.276 133.45V54.7775C604.276 26.8102 627.033 4.05371 655 4.05371V26.8284C639.591 26.8284 627.051 39.3636 627.051 54.7775V133.446C627.051 161.413 604.294 184.17 576.327 184.17V184.174Z" fill="#F4FF57"/>
</svg>
